<svg id="레이어_1" data-name="레이어 1" xmlns="http://www.w3.org/2000/svg" viewBox="0 0 130 40">
  <defs>
    <style>
      .cls-1 {
        fill: #fff;
      }

      .cls-2 {
        fill: #e72e2f;
      }

      .cls-3 {
        isolation: isolate;
      }

      .cls-4 {
        fill: #0d0d0d;
      }
    </style>
  </defs>
  <g id="그룹_4" data-name="그룹 4">
    <g id="그룹_2" data-name="그룹 2">
      <rect id="사각형_4" data-name="사각형 4" class="cls-1" width="40" height="40"/>
      <path id="패스_1" data-name="패스 1" class="cls-2" d="M7.68,19.71l-.59,1a2.14,2.14,0,0,0-.16.39l-.27,1L6.07,23.8A.39.39,0,0,1,5.9,24l-.27.2a.77.77,0,0,1-.19.08l-.68.13-.47.16a1.52,1.52,0,0,0-.48.27l-.09.07a.66.66,0,0,0-.22.32L3.26,26,2.9,27l-.49,1.18a1,1,0,0,0-.07.29l0,.55a.86.86,0,0,1,0,.23l-.2.46a1.25,1.25,0,0,0-.09.76v0a.5.5,0,0,0,.36.38h0l.36-.18.52-.67.41-1.26.44-1.11.33-.76a.92.92,0,0,1,.3-.4h0A1,1,0,0,1,5,26.36l.58-.15,1-.17-.34.4a1.11,1.11,0,0,0-.17.27l-.25.65-.43,1.1s0,.09-.07.14l-.33.61a1.47,1.47,0,0,0-.1.22l-.18.51a1.81,1.81,0,0,0-.12.57l0,.55a.74.74,0,0,0,.12.46h0a.31.31,0,0,0,.28.15l.17,0a.45.45,0,0,0,.33-.19l.23-.32.47-.81.57-1.28.61-1.24a.45.45,0,0,1,.1-.14L8,27.2a1,1,0,0,1,.25-.15l.43-.13a.73.73,0,0,1,.25,0h.39a2.56,2.56,0,0,0,.47,0l1.67-.32.74-.22a.84.84,0,0,0,.27-.13l.86-.54.83-.61a1.52,1.52,0,0,0,.33-.34l.26-.37A4.43,4.43,0,0,1,16,23.15h0a2.22,2.22,0,0,1,.63-.27l.46-.13,1.1-.26,1.63-.4,1.08-.3,1.39-.44,1.41-.62,2.23-1.48.52-.44a6,6,0,0,1,1.35-.87l.14-.07,1.36-.48,1.55-.68,1.78-.63L34,15.51,35.12,15a6.35,6.35,0,0,0,.81-.44l1-.67.11-.09.75-.73.06-.08.12-.19a.33.33,0,0,0,0-.32l0,0a.17.17,0,0,0-.12-.1l-.27-.05-.52,0-1,.56-.93.64-.15.08-.44.18a1.24,1.24,0,0,1-.51.08l-.27,0h-.13L33,14l0,0-1,.35-.38.1-.79.15a.67.67,0,0,1-.28,0l-.13,0a.89.89,0,0,1-.47-.31l-.19-.21.52-.13a.39.39,0,0,0,.17-.11l.38-.48a.6.6,0,0,0,.1-.25V13a.31.31,0,0,1,.16-.24l.28-.16a.65.65,0,0,0,.25-.27l.2-.42a1.36,1.36,0,0,0,.12-.63h0a.77.77,0,0,0-.12-.35l-.07-.11a1.53,1.53,0,0,0-.44-.4l-.61-.34-.79-.32-.66-.27-.56-.18A1.76,1.76,0,0,0,28,9.22l-.45,0-1.16-.09-1.23-.22-.62-.19-1.43-.33-1.49-.1-1.18.06c-.22,0-.43,0-.65.07l-.63.12a5.85,5.85,0,0,0-1.3.37L17,9.3l.22.23a.89.89,0,0,0,.22.16l.37.17a.79.79,0,0,0,.26.08l.31,0,.56-.36L19,9.55l.47-.22-.46.38-.7.54L17.6,11a.1.1,0,0,0,0,0l-.24.37a1.59,1.59,0,0,0-.12.27l-.08.29.15,0a3.15,3.15,0,0,0,1.08-.29h0a1,1,0,0,1,.27-.1l.7-.21.91-.1,1.3-.19.87.05a3.62,3.62,0,0,1,.46.06h0a2.48,2.48,0,0,0,.77,0h.07l.49,0-.1.69-.16.44a2.05,2.05,0,0,1-.41.7l-.23.25-.2.18-.83.63-.61.49a4.13,4.13,0,0,1-1.12.63l-.89.33L18,16.16l-1.22.35-1.9.47-1.73.4-1.32.36-1.24.31-1,.39L8.34,19l-.42.36A.92.92,0,0,0,7.68,19.71Z"/>
    </g>
    <g id="그룹_3" data-name="그룹 3">
      <rect id="사각형_6" data-name="사각형 6" class="cls-1" x="40" width="90" height="40"/>
      <g id="SkipCourse" class="cls-3">
        <g class="cls-3">
          <path class="cls-4" d="M45.45,27.22a6.24,6.24,0,0,1-2.8-.57,6.47,6.47,0,0,1-2-1.47l1.8-1.82a4.09,4.09,0,0,0,3.15,1.43,2.32,2.32,0,0,0,1.5-.41,1.38,1.38,0,0,0,.48-1.09,1.32,1.32,0,0,0-.28-.87A1.88,1.88,0,0,0,46.16,22l-1.25-.16A4.79,4.79,0,0,1,42,20.58,3.47,3.47,0,0,1,41.06,18a3.62,3.62,0,0,1,.33-1.55,3.39,3.39,0,0,1,.92-1.21,4.52,4.52,0,0,1,1.48-.78,6.38,6.38,0,0,1,2-.28,6.45,6.45,0,0,1,2.5.45A5,5,0,0,1,50.13,16l-1.81,1.84A3.65,3.65,0,0,0,47.23,17a3.52,3.52,0,0,0-1.61-.33,2.39,2.39,0,0,0-1.37.32,1,1,0,0,0-.45.89,1.11,1.11,0,0,0,.35.93,2.48,2.48,0,0,0,1.14.41l1.24.2a5.27,5.27,0,0,1,2.88,1.19,3.33,3.33,0,0,1,.94,2.54A4.22,4.22,0,0,1,50,24.78a3.5,3.5,0,0,1-1,1.3,4.38,4.38,0,0,1-1.54.84A6.72,6.72,0,0,1,45.45,27.22Z"/>
          <path class="cls-4" d="M51.77,13.68h2.67v7.87h.1l1.17-1.75,1.89-2.25h3l-3.15,3.62L60.92,27H57.75l-2.13-4-1.18,1.34V27H51.77Z"/>
          <path class="cls-4" d="M62.79,16.54a1.59,1.59,0,0,1-1.18-.37,1.25,1.25,0,0,1-.37-.94v-.4a1.25,1.25,0,0,1,.37-.94,2.07,2.07,0,0,1,2.36,0,1.29,1.29,0,0,1,.37.94v.4a1.29,1.29,0,0,1-.37.94A1.61,1.61,0,0,1,62.79,16.54Zm-1.33,1h2.66V27H61.46Z"/>
          <path class="cls-4" d="M65.9,17.55h2.67v1.58h.09a2.2,2.2,0,0,1,.9-1.29,2.74,2.74,0,0,1,1.63-.51,3.15,3.15,0,0,1,2.72,1.26,6.22,6.22,0,0,1,.92,3.68A6.27,6.27,0,0,1,73.91,26a3.16,3.16,0,0,1-2.72,1.27,2.84,2.84,0,0,1-.88-.14,2.94,2.94,0,0,1-.75-.38,2.41,2.41,0,0,1-.9-1.28h-.09V30.6H65.9Zm4.41,7.51a1.64,1.64,0,0,0,1.25-.53,2.05,2.05,0,0,0,.5-1.44V21.46a2,2,0,0,0-.5-1.43,1.61,1.61,0,0,0-1.25-.54,2.08,2.08,0,0,0-1.25.37,1.21,1.21,0,0,0-.49,1v2.79a1.21,1.21,0,0,0,.49,1A2.08,2.08,0,0,0,70.31,25.06Z"/>
          <path class="cls-4" d="M81.36,27.22a6.2,6.2,0,0,1-2.3-.41,4.64,4.64,0,0,1-1.75-1.2,5.61,5.61,0,0,1-1.11-2,8.76,8.76,0,0,1-.4-2.8A9,9,0,0,1,76.2,18a5.86,5.86,0,0,1,1.11-2.07,4.7,4.7,0,0,1,1.75-1.27,5.82,5.82,0,0,1,2.3-.43,5.34,5.34,0,0,1,2.88.71,4.93,4.93,0,0,1,1.82,2.24L83.7,18.4a2.77,2.77,0,0,0-.78-1.27,2.24,2.24,0,0,0-1.56-.48,2.51,2.51,0,0,0-1.93.78,3.22,3.22,0,0,0-.73,2.28v2A3.19,3.19,0,0,0,79.43,24a2.48,2.48,0,0,0,1.93.79A2.35,2.35,0,0,0,83,24.24a3.47,3.47,0,0,0,.89-1.33l2.23,1.3a5.6,5.6,0,0,1-1.85,2.22A5,5,0,0,1,81.36,27.22Z"/>
          <path class="cls-4" d="M91,27.22a4.78,4.78,0,0,1-1.86-.35,3.55,3.55,0,0,1-1.39-1,4.54,4.54,0,0,1-.87-1.56,7,7,0,0,1,0-4.11,4.41,4.41,0,0,1,.87-1.55,3.63,3.63,0,0,1,1.39-1,5.14,5.14,0,0,1,3.73,0,3.67,3.67,0,0,1,1.38,1,4.42,4.42,0,0,1,.88,1.55,7.19,7.19,0,0,1,0,4.11,4.56,4.56,0,0,1-.88,1.56,3.59,3.59,0,0,1-1.38,1A4.8,4.8,0,0,1,91,27.22Zm0-2.11a1.55,1.55,0,0,0,1.23-.49,2,2,0,0,0,.43-1.38V21.31a2,2,0,0,0-.43-1.38,1.78,1.78,0,0,0-2.45,0,2,2,0,0,0-.43,1.38v1.93a2,2,0,0,0,.43,1.38A1.54,1.54,0,0,0,91,25.11Z"/>
          <path class="cls-4" d="M102.19,25.42h-.09a3.56,3.56,0,0,1-.33.68,2.43,2.43,0,0,1-.53.58,2.66,2.66,0,0,1-.77.39,3.13,3.13,0,0,1-1,.15,2.6,2.6,0,0,1-2.2-1,4.4,4.4,0,0,1-.75-2.76V17.55h2.67v5.71a2.47,2.47,0,0,0,.3,1.33,1.17,1.17,0,0,0,1,.47,2.2,2.2,0,0,0,.61-.09,1.71,1.71,0,0,0,.54-.27,1.4,1.4,0,0,0,.38-.42,1.22,1.22,0,0,0,.14-.59V17.55h2.66V27h-2.66Z"/>
          <path class="cls-4" d="M106.64,27V17.55h2.66V19.6h.09a3,3,0,0,1,.25-.76,2.24,2.24,0,0,1,.48-.66,2.35,2.35,0,0,1,.71-.46,2.59,2.59,0,0,1,1-.17h.47V20h-.67a3.78,3.78,0,0,0-1.73.31,1.16,1.16,0,0,0-.57,1.13V27Z"/>
          <path class="cls-4" d="M116.41,27.22a4.89,4.89,0,0,1-4-1.7L114,23.94a3.85,3.85,0,0,0,1.11.88,2.88,2.88,0,0,0,1.39.33,1.78,1.78,0,0,0,1.1-.25.79.79,0,0,0,.3-.65c0-.45-.31-.71-1-.8l-1-.12q-3.18-.41-3.18-2.92a2.89,2.89,0,0,1,.26-1.25,2.7,2.7,0,0,1,.74-1,3.35,3.35,0,0,1,1.15-.63,4.8,4.8,0,0,1,1.52-.23,8.19,8.19,0,0,1,1.3.1,4.47,4.47,0,0,1,1,.29,3.58,3.58,0,0,1,.81.47,8.28,8.28,0,0,1,.73.62l-1.53,1.57a3.41,3.41,0,0,0-1-.71,2.63,2.63,0,0,0-1.16-.27,1.69,1.69,0,0,0-1,.22.69.69,0,0,0-.29.58.78.78,0,0,0,.21.58,1.44,1.44,0,0,0,.78.3l1.07.14c2.07.28,3.11,1.23,3.11,2.85a2.79,2.79,0,0,1-1.11,2.25,3.61,3.61,0,0,1-1.28.66A5.37,5.37,0,0,1,116.41,27.22Z"/>
          <path class="cls-4" d="M125.52,27.22a4.88,4.88,0,0,1-1.93-.36,3.91,3.91,0,0,1-1.43-1,4.13,4.13,0,0,1-.88-1.55,6.59,6.59,0,0,1-.3-2.05,6.77,6.77,0,0,1,.29-2,4.44,4.44,0,0,1,.85-1.56,3.94,3.94,0,0,1,1.4-1,4.86,4.86,0,0,1,1.89-.35,4.74,4.74,0,0,1,2,.4,3.79,3.79,0,0,1,1.36,1.06,4.23,4.23,0,0,1,.78,1.54,6.85,6.85,0,0,1,.24,1.83V23h-6.07v.14a2.1,2.1,0,0,0,.51,1.48,2.06,2.06,0,0,0,1.58.54,2.48,2.48,0,0,0,1.35-.33,5.24,5.24,0,0,0,1-.79l1.34,1.66a4.26,4.26,0,0,1-1.65,1.15A6,6,0,0,1,125.52,27.22Zm-.06-7.92a1.58,1.58,0,0,0-1.27.53,2.1,2.1,0,0,0-.46,1.41v.14h3.32v-.16a2.29,2.29,0,0,0-.39-1.39A1.37,1.37,0,0,0,125.46,19.3Z"/>
        </g>
      </g>
    </g>
  </g>
</svg>
