<svg id="logo" xmlns="http://www.w3.org/2000/svg" viewBox="0 0 130 40"><defs><style>.cls-1{fill:#fff;}.cls-2{fill:#e72e2f;}.cls-3,.cls-4{isolation:isolate;}.cls-4{font-size:18px;fill:#0d0d0d;font-family:IBMPlexSans-Bold, IBM Plex Sans;font-weight:700;letter-spacing:-0.04em;}</style></defs><g id="그룹_4" data-name="그룹 4"><g id="그룹_2" data-name="그룹 2"><rect id="사각형_4" data-name="사각형 4" class="cls-1" width="40" height="40"/><path id="패스_1" data-name="패스 1" class="cls-2" d="M7.68,19.71l-.59,1a2.14,2.14,0,0,0-.16.39l-.27,1L6.07,23.8A.39.39,0,0,1,5.9,24l-.27.2a.77.77,0,0,1-.19.08l-.68.13-.47.16a1.52,1.52,0,0,0-.48.27l-.09.07a.66.66,0,0,0-.22.32L3.26,26,2.9,27l-.49,1.18a1,1,0,0,0-.07.29l0,.55a.86.86,0,0,1,0,.23l-.2.46a1.25,1.25,0,0,0-.09.76v0a.5.5,0,0,0,.36.38h0l.36-.18.52-.67.41-1.26.44-1.11.33-.76a.92.92,0,0,1,.3-.4h0A1,1,0,0,1,5,26.36l.58-.15,1-.17-.34.4a1.11,1.11,0,0,0-.17.27l-.25.65-.43,1.1s0,.09-.07.14l-.33.61a1.47,1.47,0,0,0-.1.22l-.18.51a1.81,1.81,0,0,0-.12.57l0,.55a.74.74,0,0,0,.12.46h0a.31.31,0,0,0,.28.15l.17,0a.45.45,0,0,0,.33-.19l.23-.32.47-.81.57-1.28.61-1.24a.45.45,0,0,1,.1-.14L8,27.2a1,1,0,0,1,.25-.15l.43-.13a.73.73,0,0,1,.25,0h.39a2.56,2.56,0,0,0,.47,0l1.67-.32.74-.22a.84.84,0,0,0,.27-.13l.86-.54.83-.61a1.52,1.52,0,0,0,.33-.34l.26-.37A4.43,4.43,0,0,1,16,23.15h0a2.22,2.22,0,0,1,.63-.27l.46-.13,1.1-.26,1.63-.4,1.08-.3,1.39-.44,1.41-.62,2.23-1.48.52-.44a6,6,0,0,1,1.35-.87l.14-.07,1.36-.48,1.55-.68,1.78-.63L34,15.51,35.12,15a6.35,6.35,0,0,0,.81-.44l1-.67.11-.09.75-.73.06-.08.12-.19a.33.33,0,0,0,0-.32l0,0a.17.17,0,0,0-.12-.1l-.27-.05-.52,0-1,.56-.93.64-.15.08-.44.18a1.24,1.24,0,0,1-.51.08l-.27,0h-.13L33,14l0,0-1,.35-.38.1-.79.15a.67.67,0,0,1-.28,0l-.13,0a.89.89,0,0,1-.47-.31l-.19-.21.52-.13a.39.39,0,0,0,.17-.11l.38-.48a.6.6,0,0,0,.1-.25V13a.31.31,0,0,1,.16-.24l.28-.16a.65.65,0,0,0,.25-.27l.2-.42a1.36,1.36,0,0,0,.12-.63h0a.77.77,0,0,0-.12-.35l-.07-.11a1.53,1.53,0,0,0-.44-.4l-.61-.34-.79-.32-.66-.27-.56-.18A1.76,1.76,0,0,0,28,9.22l-.45,0-1.16-.09-1.23-.22-.62-.19-1.43-.33-1.49-.1-1.18.06c-.22,0-.43,0-.65.07l-.63.12a5.85,5.85,0,0,0-1.3.37L17,9.3l.22.23a.89.89,0,0,0,.22.16l.37.17a.79.79,0,0,0,.26.08l.31,0,.56-.36L19,9.55l.47-.22-.46.38-.7.54L17.6,11a.1.1,0,0,0,0,0l-.24.37a1.59,1.59,0,0,0-.12.27l-.08.29.15,0a3.15,3.15,0,0,0,1.08-.29h0a1,1,0,0,1,.27-.1l.7-.21.91-.1,1.3-.19.87.05a3.62,3.62,0,0,1,.46.06h0a2.48,2.48,0,0,0,.77,0h.07l.49,0-.1.69-.16.44a2.05,2.05,0,0,1-.41.7l-.23.25-.2.18-.83.63-.61.49a4.13,4.13,0,0,1-1.12.63l-.89.33L18,16.16l-1.22.35-1.9.47-1.73.4-1.32.36-1.24.31-1,.39L8.34,19l-.42.36A.92.92,0,0,0,7.68,19.71Z"/></g><g id="그룹_3" data-name="그룹 3"><rect id="사각형_6" data-name="사각형 6" class="cls-1" x="40" width="90" height="40"/><g id="SkipCourse" class="cls-3"><text class="cls-4" transform="translate(40 27)">SkipCourse</text></g></g></g></svg>