<svg id="logo" xmlns="http://www.w3.org/2000/svg" viewBox="0 0 1080 1080"><defs><style>.cls-1{fill:#e72e2f;}.cls-2{fill:none;}</style></defs><path class="cls-1" d="M211.21,562.91l-13.4,23.64a46.4,46.4,0,0,0-4.4,10.75L186.5,623c-.29,1.09-.63,2.17-1,3.24l-15.38,43a13.1,13.1,0,0,1-4.85,6.34l-7,4.89a14.76,14.76,0,0,1-5.56,2.37L136.92,686a39.38,39.38,0,0,0-4.54,1.2l-10.25,3.37a42.16,42.16,0,0,0-13.55,7.45l-1.92,1.57a19.49,19.49,0,0,0-6.21,9.16l-6.37,20-9.92,27.76L71,788.38a24.53,24.53,0,0,0-1.83,8.22l-.69,14.5a18.47,18.47,0,0,1-1.5,6.43l-5.23,12.05a36.87,36.87,0,0,0-2.45,21.3l.13.67a12.77,12.77,0,0,0,7.27,9.32,5,5,0,0,0,4.18-.06l6.39-3a7.28,7.28,0,0,0,2.64-2.12l11-14.26a18.58,18.58,0,0,0,2.95-5.56l10.21-31.08a.14.14,0,0,0,0-.06l11.71-30L124.69,754a27.48,27.48,0,0,1,7-9.68,26.48,26.48,0,0,1,10.9-5.65l14.84-3.9.08,0,26-4.85.07,0,85.95-10.41-23.42,5.2H246l-50.24,8a37.75,37.75,0,0,0-13.2,4.74l-2.38,1.41a19.65,19.65,0,0,0-8.23,9.54l0,.08-7,17.36-11.54,29.75a34.64,34.64,0,0,1-1.84,4L142.68,816a44.81,44.81,0,0,0-2.71,6.09l-4.82,13.47a57.69,57.69,0,0,0-3.23,15.8L131,866.09a21.55,21.55,0,0,0,3.16,12.62h0a8,8,0,0,0,7.57,3.77l4.06-.38a13.7,13.7,0,0,0,9.81-5.59l5.93-8.14a.86.86,0,0,0,.07-.1l12.64-21.77.06-.11,15.29-34.58,16.48-33.34a14.92,14.92,0,0,1,3.12-4.26L222,762a18.88,18.88,0,0,1,7.24-4.31l11.12-3.55a22.33,22.33,0,0,1,7.26-1.06l10.16.22a60,60,0,0,0,12.9-1.1l45.05-8.71.11,0,19.95-5.86a29.37,29.37,0,0,0,7.59-3.44l23-14.64.06,0L388.94,703a39.73,39.73,0,0,0,9.09-9.3l6.89-9.87a115.37,115.37,0,0,1,33.18-31.63h0a63.34,63.34,0,0,1,17-7.5l12.61-3.46,29.87-6.94,43.94-10.71,29.31-8.11,37.5-12,.1,0,38.1-16.6a.56.56,0,0,0,.17-.09l60.17-40,.1-.08,14-11.83a168.37,168.37,0,0,1,36.8-23.72l3.55-1.68.1,0,36.91-13.16.07,0,41.7-18.3.07,0,48.12-17,38.79-15.48,29.09-12.74a149.88,149.88,0,0,0,22-11.92l27.43-18a20,20,0,0,0,3.08-2.49l20.12-19.78a13.92,13.92,0,0,0,1.91-2.35l2.82-4.4a10,10,0,0,0,.62-9.67l0-.1a5.74,5.74,0,0,0-4.07-3.17l-2.17-.43a35.61,35.61,0,0,0-9.16-.62l-1.88.12a31.51,31.51,0,0,0-14,4.26l-19.44,11.36-.06,0-25.18,17.26a22.17,22.17,0,0,1-4.24,2.27l-11.51,4.64A32.84,32.84,0,0,1,928.25,402l-7.1-.41a15.56,15.56,0,0,0-3.67.23L900.11,405a8.24,8.24,0,0,0-1.38.36l-27.58,9.49a75.06,75.06,0,0,1-10.61,2.82l-20.9,3.95a17.43,17.43,0,0,1-8.15-.4l-3.07-.89a27.25,27.25,0,0,1-13.27-8.7l-3.55-4.25a1.11,1.11,0,0,1,.58-1.79l11.91-3a9.44,9.44,0,0,0,5.12-3.32l9.85-12.56a13.62,13.62,0,0,0,2.85-7.35l.12-1.46a9.19,9.19,0,0,1,4.66-7.32l6.76-3.82a17.7,17.7,0,0,0,7.3-7.8l5.35-11.18a34.11,34.11,0,0,0,3.29-16.69,19.67,19.67,0,0,0-3.39-9.84l-1.74-2.57A36.46,36.46,0,0,0,852,307.41l-16.09-9.08-.13-.07-21.31-8.59-17.86-7.36-.09,0-15-4.75a48.86,48.86,0,0,0-17.73-2.18l-11.87.74h-.15l-31.28-2.41h-.12l-33-5.94-.12,0-16.7-5-.07,0-38.72-9a1.13,1.13,0,0,0-.18,0l-40-2.6h-.13l-31.84,1.59a141.17,141.17,0,0,0-17.75,2l-16.84,3a177.76,177.76,0,0,0-35.38,10.17l-22.46,9.06a1.11,1.11,0,0,0-.39,1.8l4.61,4.81a21.71,21.71,0,0,0,6.46,4.66l9.61,4.56a23.35,23.35,0,0,0,7.26,2.09l8,.93a1.09,1.09,0,0,0,.73-.17l14.62-9.47a29.68,29.68,0,0,1,3.31-1.84l4.24-2a1.12,1.12,0,0,1,1.19,1.87l-5.47,4.49-18.92,14.7-.09.08-20,19.15a9,9,0,0,0-1.38,1.69l-6.23,9.91a27.84,27.84,0,0,0-3.33,7.57l-1.64,6a1.12,1.12,0,0,0,1.19,1.4l2.07-.2a90.56,90.56,0,0,0,29.72-8.25h0A46.63,46.63,0,0,1,510,338L523.74,334a71.59,71.59,0,0,1,11-2.22l18.94-2.29,35-5.06h.23l23.23,1.41a101.87,101.87,0,0,1,12.56,1.56l.56.11a69.9,69.9,0,0,0,21.36.71l1.43-.18h.21l12.08.78a1.12,1.12,0,0,1,1,1.28l-2.53,17.28a.73.73,0,0,1-.06.21l-4.19,11.74a56.93,56.93,0,0,1-11.49,19.14l-5.92,6.5a40.3,40.3,0,0,1-5.54,5.07l-22.47,17-16.41,13.25a107.56,107.56,0,0,1-30.52,17.28l-23.84,8.75-46.73,16.91-.07,0-33,9.32L407,485.47l-46.85,10.65-35.76,9.72-30.81,7.94c-1.72.45-3.43,1-5.1,1.6l-22.61,8.4a52.41,52.41,0,0,0-6,2.65l-25.61,13.31a27.07,27.07,0,0,0-5,3.38l-5.49,4.65A56,56,0,0,0,211.21,562.91Z"/><path class="cls-2" d="M780,624"/><rect class="cls-2" width="1080" height="1080"/></svg>